<?xml version="1.0" encoding="UTF-8"?>
<svg id="Camada_1" xmlns="http://www.w3.org/2000/svg" xmlns:xlink="http://www.w3.org/1999/xlink" version="1.1" viewBox="0 0 618.67 768">
  <!-- Generator: Adobe Illustrator 30.3.0, SVG Export Plug-In . SVG Version: 2.1.3 Build 182)  -->
  <defs>
    <style>
      .st0, .st1 {
        fill: #191410;
      }

      .st2 {
        fill: url(#Gradiente_sem_nome_3);
      }

      .st1 {
        opacity: .32;
      }

      .st3 {
        display: none;
      }
    </style>
    <linearGradient id="Gradiente_sem_nome_3" data-name="Gradiente sem nome 3" x1="-283.81" y1="93.73" x2="164.02" y2="609.33" gradientTransform="translate(373.06 36.89)" gradientUnits="userSpaceOnUse">
      <stop offset="0" stop-color="#eae4d0"/>
      <stop offset=".31" stop-color="#d8d1bb"/>
      <stop offset=".94" stop-color="#aaa387"/>
      <stop offset="1" stop-color="#a69f82"/>
    </linearGradient>
  </defs>
  <g>
    <path class="st0" d="M452.19,635.51l11.29,28.24c-74.72-2.53-278.53-1.69-278.53-1.69-2.68,0-3.77-3.39-1.63-5.01,59.32-44.94,81.92-105.63,91.09-153.66-80.37-18.85-138.3-87.64-140.17-189.89-2.26-123.6,81.88-205.4,192.63-207.44,63.67-1.17,116.02,23.03,147.75,60.46l-20.53,19.1c-32.42-45.97-77.31-71.91-129.75-70.94-88.27,1.61-151.61,79.3-149.64,187.9,1.6,87.73,43.47,150.96,103.56,175.61,2.32-19.71,2.67-35.55,3.37-44.64,2.56-32.42,5.49-65.14,15.5-96.09,2.55-7.89,5.66-15.6,9.34-23.03,8.82-17.83,20.87-34.18,35.84-47.33,16.03-14.06,35.77-24.77,57.45-26.62,3.27-.28,6.53-.2,9.81.03,6.54.45,14.85,1.64,20.39,5.24-2.83.76-37.12-6.29-63.97,18.35-41.68,38.24-40.9,160.83-43.17,198.81-.73,9.02-1.73,17.61-2.98,25.77,6.69.72,13.51,1.02,20.45.89,51.89-.95,102.84-24.89,137.69-80.64l6.48,3.62c-34.81,57.38-87.11,94.72-159.87,96.05-2.8.05-5.61.05-8.39,0-16.9,78.41-56.38,113.56-78.46,139.42l41.56-.5c86.43-1.4,133.09-2.71,172.89-11.98Z"/>
    <g class="st3">
      <rect class="st1" x="484.46" y="36.89" width="69.12" height="694.22"/>
      <rect class="st1" x="65.08" y="36.89" width="69.12" height="694.22"/>
      <rect class="st1" x="65.08" y="661.99" width="488.51" height="69.12"/>
      <rect class="st1" x="65.08" y="36.89" width="488.51" height="69.12"/>
    </g>
  </g>
  <g>
    <g>
      <g>
        <path class="st2" d="M452.19,635.51l11.29,28.24c-74.72-2.53-278.53-1.69-278.53-1.69-2.68,0-3.77-3.39-1.63-5.01,59.32-44.94,81.92-105.63,91.09-153.66-80.37-18.85-138.3-87.64-140.17-189.89-2.26-123.6,81.88-205.4,192.63-207.44,63.67-1.17,116.02,23.03,147.75,60.46l-20.53,19.1c-32.42-45.97-77.31-71.91-129.75-70.94-88.27,1.61-151.61,79.3-149.64,187.9,1.6,87.73,43.47,150.96,103.56,175.61,2.32-19.71,2.67-35.55,3.37-44.64,2.56-32.42,5.49-65.14,15.5-96.09,2.55-7.89,5.66-15.6,9.34-23.03,8.82-17.83,20.87-34.18,35.84-47.33,16.03-14.06,35.77-24.77,57.45-26.62,3.27-.28,6.53-.2,9.81.03,6.54.45,14.85,1.64,20.39,5.24-2.83.76-37.12-6.29-63.97,18.35-41.68,38.24-40.9,160.83-43.17,198.81-.73,9.02-1.73,17.61-2.98,25.77,6.69.72,13.51,1.02,20.45.89,51.89-.95,102.84-24.89,137.69-80.64l6.48,3.62c-34.81,57.38-87.11,94.72-159.87,96.05-2.8.05-5.61.05-8.39,0-16.9,78.41-56.38,113.56-78.46,139.42l41.56-.5c86.43-1.4,133.09-2.71,172.89-11.98Z"/>
        <path class="st2" d="M452.19,635.51l11.29,28.24c-74.72-2.53-278.53-1.69-278.53-1.69-2.68,0-3.77-3.39-1.63-5.01,59.32-44.94,81.92-105.63,91.09-153.66-80.37-18.85-138.3-87.64-140.17-189.89-2.26-123.6,81.88-205.4,192.63-207.44,63.67-1.17,116.02,23.03,147.75,60.46l-20.53,19.1c-32.42-45.97-77.31-71.91-129.75-70.94-88.27,1.61-151.61,79.3-149.64,187.9,1.6,87.73,43.47,150.96,103.56,175.61,2.32-19.71,2.67-35.55,3.37-44.64,2.56-32.42,5.49-65.14,15.5-96.09,2.55-7.89,5.66-15.6,9.34-23.03,8.82-17.83,20.87-34.18,35.84-47.33,16.03-14.06,35.77-24.77,57.45-26.62,3.27-.28,6.53-.2,9.81.03,6.54.45,14.85,1.64,20.39,5.24-2.83.76-37.12-6.29-63.97,18.35-41.68,38.24-40.9,160.83-43.17,198.81-.73,9.02-1.73,17.61-2.98,25.77,6.69.72,13.51,1.02,20.45.89,51.89-.95,102.84-24.89,137.69-80.64l6.48,3.62c-34.81,57.38-87.11,94.72-159.87,96.05-2.8.05-5.61.05-8.39,0-16.9,78.41-56.38,113.56-78.46,139.42l41.56-.5c86.43-1.4,133.09-2.71,172.89-11.98Z"/>
        <path class="st2" d="M452.19,635.51l11.29,28.24c-74.72-2.53-278.53-1.69-278.53-1.69-2.68,0-3.77-3.39-1.63-5.01,59.32-44.94,81.92-105.63,91.09-153.66-80.37-18.85-138.3-87.64-140.17-189.89-2.26-123.6,81.88-205.4,192.63-207.44,63.67-1.17,116.02,23.03,147.75,60.46l-20.53,19.1c-32.42-45.97-77.31-71.91-129.75-70.94-88.27,1.61-151.61,79.3-149.64,187.9,1.6,87.73,43.47,150.96,103.56,175.61,2.32-19.71,2.67-35.55,3.37-44.64,2.56-32.42,5.49-65.14,15.5-96.09,2.55-7.89,5.66-15.6,9.34-23.03,8.82-17.83,20.87-34.18,35.84-47.33,16.03-14.06,35.77-24.77,57.45-26.62,3.27-.28,6.53-.2,9.81.03,6.54.45,14.85,1.64,20.39,5.24-2.83.76-37.12-6.29-63.97,18.35-41.68,38.24-40.9,160.83-43.17,198.81-.73,9.02-1.73,17.61-2.98,25.77,6.69.72,13.51,1.02,20.45.89,51.89-.95,102.84-24.89,137.69-80.64l6.48,3.62c-34.81,57.38-87.11,94.72-159.87,96.05-2.8.05-5.61.05-8.39,0-16.9,78.41-56.38,113.56-78.46,139.42l41.56-.5c86.43-1.4,133.09-2.71,172.89-11.98Z"/>
      </g>
      <g>
        <path class="st2" d="M452.19,635.51l11.29,28.24c-74.72-2.53-278.53-1.69-278.53-1.69-2.68,0-3.77-3.39-1.63-5.01,59.32-44.94,81.92-105.63,91.09-153.66-80.37-18.85-138.3-87.64-140.17-189.89-2.26-123.6,81.88-205.4,192.63-207.44,63.67-1.17,116.02,23.03,147.75,60.46l-20.53,19.1c-32.42-45.97-77.31-71.91-129.75-70.94-88.27,1.61-151.61,79.3-149.64,187.9,1.6,87.73,43.47,150.96,103.56,175.61,2.32-19.71,2.67-35.55,3.37-44.64,2.56-32.42,5.49-65.14,15.5-96.09,2.55-7.89,5.66-15.6,9.34-23.03,8.82-17.83,20.87-34.18,35.84-47.33,16.03-14.06,35.77-24.77,57.45-26.62,3.27-.28,6.53-.2,9.81.03,6.54.45,14.85,1.64,20.39,5.24-2.83.76-37.12-6.29-63.97,18.35-41.68,38.24-40.9,160.83-43.17,198.81-.73,9.02-1.73,17.61-2.98,25.77,6.69.72,13.51,1.02,20.45.89,51.89-.95,102.84-24.89,137.69-80.64l6.48,3.62c-34.81,57.38-87.11,94.72-159.87,96.05-2.8.05-5.61.05-8.39,0-16.9,78.41-56.38,113.56-78.46,139.42l41.56-.5c86.43-1.4,133.09-2.71,172.89-11.98Z"/>
        <path class="st2" d="M452.19,635.51l11.29,28.24c-74.72-2.53-278.53-1.69-278.53-1.69-2.68,0-3.77-3.39-1.63-5.01,59.32-44.94,81.92-105.63,91.09-153.66-80.37-18.85-138.3-87.64-140.17-189.89-2.26-123.6,81.88-205.4,192.63-207.44,63.67-1.17,116.02,23.03,147.75,60.46l-20.53,19.1c-32.42-45.97-77.31-71.91-129.75-70.94-88.27,1.61-151.61,79.3-149.64,187.9,1.6,87.73,43.47,150.96,103.56,175.61,2.32-19.71,2.67-35.55,3.37-44.64,2.56-32.42,5.49-65.14,15.5-96.09,2.55-7.89,5.66-15.6,9.34-23.03,8.82-17.83,20.87-34.18,35.84-47.33,16.03-14.06,35.77-24.77,57.45-26.62,3.27-.28,6.53-.2,9.81.03,6.54.45,14.85,1.64,20.39,5.24-2.83.76-37.12-6.29-63.97,18.35-41.68,38.24-40.9,160.83-43.17,198.81-.73,9.02-1.73,17.61-2.98,25.77,6.69.72,13.51,1.02,20.45.89,51.89-.95,102.84-24.89,137.69-80.64l6.48,3.62c-34.81,57.38-87.11,94.72-159.87,96.05-2.8.05-5.61.05-8.39,0-16.9,78.41-56.38,113.56-78.46,139.42l41.56-.5c86.43-1.4,133.09-2.71,172.89-11.98Z"/>
        <path class="st2" d="M452.19,635.51l11.29,28.24c-74.72-2.53-278.53-1.69-278.53-1.69-2.68,0-3.77-3.39-1.63-5.01,59.32-44.94,81.92-105.63,91.09-153.66-80.37-18.85-138.3-87.64-140.17-189.89-2.26-123.6,81.88-205.4,192.63-207.44,63.67-1.17,116.02,23.03,147.75,60.46l-20.53,19.1c-32.42-45.97-77.31-71.91-129.75-70.94-88.27,1.61-151.61,79.3-149.64,187.9,1.6,87.73,43.47,150.96,103.56,175.61,2.32-19.71,2.67-35.55,3.37-44.64,2.56-32.42,5.49-65.14,15.5-96.09,2.55-7.89,5.66-15.6,9.34-23.03,8.82-17.83,20.87-34.18,35.84-47.33,16.03-14.06,35.77-24.77,57.45-26.62,3.27-.28,6.53-.2,9.81.03,6.54.45,14.85,1.64,20.39,5.24-2.83.76-37.12-6.29-63.97,18.35-41.68,38.24-40.9,160.83-43.17,198.81-.73,9.02-1.73,17.61-2.98,25.77,6.69.72,13.51,1.02,20.45.89,51.89-.95,102.84-24.89,137.69-80.64l6.48,3.62c-34.81,57.38-87.11,94.72-159.87,96.05-2.8.05-5.61.05-8.39,0-16.9,78.41-56.38,113.56-78.46,139.42l41.56-.5c86.43-1.4,133.09-2.71,172.89-11.98Z"/>
      </g>
      <g>
        <path class="st2" d="M452.19,635.51l11.29,28.24c-74.72-2.53-278.53-1.69-278.53-1.69-2.68,0-3.77-3.39-1.63-5.01,59.32-44.94,81.92-105.63,91.09-153.66-80.37-18.85-138.3-87.64-140.17-189.89-2.26-123.6,81.88-205.4,192.63-207.44,63.67-1.17,116.02,23.03,147.75,60.46l-20.53,19.1c-32.42-45.97-77.31-71.91-129.75-70.94-88.27,1.61-151.61,79.3-149.64,187.9,1.6,87.73,43.47,150.96,103.56,175.61,2.32-19.71,2.67-35.55,3.37-44.64,2.56-32.42,5.49-65.14,15.5-96.09,2.55-7.89,5.66-15.6,9.34-23.03,8.82-17.83,20.87-34.18,35.84-47.33,16.03-14.06,35.77-24.77,57.45-26.62,3.27-.28,6.53-.2,9.81.03,6.54.45,14.85,1.64,20.39,5.24-2.83.76-37.12-6.29-63.97,18.35-41.68,38.24-40.9,160.83-43.17,198.81-.73,9.02-1.73,17.61-2.98,25.77,6.69.72,13.51,1.02,20.45.89,51.89-.95,102.84-24.89,137.69-80.64l6.48,3.62c-34.81,57.38-87.11,94.72-159.87,96.05-2.8.05-5.61.05-8.39,0-16.9,78.41-56.38,113.56-78.46,139.42l41.56-.5c86.43-1.4,133.09-2.71,172.89-11.98Z"/>
        <path class="st2" d="M452.19,635.51l11.29,28.24c-74.72-2.53-278.53-1.69-278.53-1.69-2.68,0-3.77-3.39-1.63-5.01,59.32-44.94,81.92-105.63,91.09-153.66-80.37-18.85-138.3-87.64-140.17-189.89-2.26-123.6,81.88-205.4,192.63-207.44,63.67-1.17,116.02,23.03,147.75,60.46l-20.53,19.1c-32.42-45.97-77.31-71.91-129.75-70.94-88.27,1.61-151.61,79.3-149.64,187.9,1.6,87.73,43.47,150.96,103.56,175.61,2.32-19.71,2.67-35.55,3.37-44.64,2.56-32.42,5.49-65.14,15.5-96.09,2.55-7.89,5.66-15.6,9.34-23.03,8.82-17.83,20.87-34.18,35.84-47.33,16.03-14.06,35.77-24.77,57.45-26.62,3.27-.28,6.53-.2,9.81.03,6.54.45,14.85,1.64,20.39,5.24-2.83.76-37.12-6.29-63.97,18.35-41.68,38.24-40.9,160.83-43.17,198.81-.73,9.02-1.73,17.61-2.98,25.77,6.69.72,13.51,1.02,20.45.89,51.89-.95,102.84-24.89,137.69-80.64l6.48,3.62c-34.81,57.38-87.11,94.72-159.87,96.05-2.8.05-5.61.05-8.39,0-16.9,78.41-56.38,113.56-78.46,139.42l41.56-.5c86.43-1.4,133.09-2.71,172.89-11.98Z"/>
        <path class="st2" d="M452.19,635.51l11.29,28.24c-74.72-2.53-278.53-1.69-278.53-1.69-2.68,0-3.77-3.39-1.63-5.01,59.32-44.94,81.92-105.63,91.09-153.66-80.37-18.85-138.3-87.64-140.17-189.89-2.26-123.6,81.88-205.4,192.63-207.44,63.67-1.17,116.02,23.03,147.75,60.46l-20.53,19.1c-32.42-45.97-77.31-71.91-129.75-70.94-88.27,1.61-151.61,79.3-149.64,187.9,1.6,87.73,43.47,150.96,103.56,175.61,2.32-19.71,2.67-35.55,3.37-44.64,2.56-32.42,5.49-65.14,15.5-96.09,2.55-7.89,5.66-15.6,9.34-23.03,8.82-17.83,20.87-34.18,35.84-47.33,16.03-14.06,35.77-24.77,57.45-26.62,3.27-.28,6.53-.2,9.81.03,6.54.45,14.85,1.64,20.39,5.24-2.83.76-37.12-6.29-63.97,18.35-41.68,38.24-40.9,160.83-43.17,198.81-.73,9.02-1.73,17.61-2.98,25.77,6.69.72,13.51,1.02,20.45.89,51.89-.95,102.84-24.89,137.69-80.64l6.48,3.62c-34.81,57.38-87.11,94.72-159.87,96.05-2.8.05-5.61.05-8.39,0-16.9,78.41-56.38,113.56-78.46,139.42l41.56-.5c86.43-1.4,133.09-2.71,172.89-11.98Z"/>
      </g>
    </g>
    <g class="st3">
      <rect class="st2" x="484.46" y="36.89" width="69.12" height="694.22"/>
      <rect class="st2" x="65.08" y="36.89" width="69.12" height="694.22"/>
      <rect class="st2" x="65.08" y="661.99" width="488.51" height="69.12"/>
      <rect class="st2" x="65.08" y="36.89" width="488.51" height="69.12"/>
    </g>
  </g>
</svg>