<?xml version="1.0" encoding="UTF-8"?>
<svg id="Camada_1" data-name="Camada 1" xmlns="http://www.w3.org/2000/svg" xmlns:xlink="http://www.w3.org/1999/xlink" viewBox="0 0 1180.22 342.69">
  <defs>
    <style>
      .cls-1 {
        fill: url(#Gradiente_sem_nome_119-20);
      }

      .cls-2 {
        fill: url(#Gradiente_sem_nome_119-26);
      }

      .cls-3 {
        fill: url(#Gradiente_sem_nome_119-23);
      }

      .cls-4 {
        fill: url(#Gradiente_sem_nome_119-24);
      }

      .cls-5 {
        fill: url(#Gradiente_sem_nome_119-25);
      }

      .cls-6 {
        fill: url(#Gradiente_sem_nome_119-22);
      }

      .cls-7 {
        fill: url(#Gradiente_sem_nome_119-21);
      }

      .cls-8 {
        fill: url(#Gradiente_sem_nome_119-10);
      }

      .cls-9 {
        fill: url(#Gradiente_sem_nome_119-11);
      }

      .cls-10 {
        fill: url(#Gradiente_sem_nome_119-12);
      }

      .cls-11 {
        fill: url(#Gradiente_sem_nome_119-17);
      }

      .cls-12 {
        fill: url(#Gradiente_sem_nome_119-18);
      }

      .cls-13 {
        fill: url(#Gradiente_sem_nome_119-19);
      }

      .cls-14 {
        fill: url(#Gradiente_sem_nome_119-15);
      }

      .cls-15 {
        fill: url(#Gradiente_sem_nome_119-16);
      }

      .cls-16 {
        fill: url(#Gradiente_sem_nome_119-13);
      }

      .cls-17 {
        fill: url(#Gradiente_sem_nome_119-14);
      }

      .cls-18 {
        fill: url(#Gradiente_sem_nome_119);
      }

      .cls-19 {
        fill: #dbd8ca;
      }

      .cls-20 {
        fill: url(#Gradiente_sem_nome_119-4);
      }

      .cls-21 {
        fill: url(#Gradiente_sem_nome_119-7);
      }

      .cls-22 {
        fill: url(#Gradiente_sem_nome_119-2);
      }

      .cls-23 {
        fill: url(#Gradiente_sem_nome_119-5);
      }

      .cls-24 {
        fill: url(#Gradiente_sem_nome_119-8);
      }

      .cls-25 {
        fill: url(#Gradiente_sem_nome_119-6);
      }

      .cls-26 {
        fill: url(#Gradiente_sem_nome_119-3);
      }

      .cls-27 {
        fill: url(#Gradiente_sem_nome_119-9);
      }
    </style>
    <linearGradient id="Gradiente_sem_nome_119" data-name="Gradiente sem nome 119" x1="48.58" y1="287.63" x2="2055.34" y2="-321.49" gradientTransform="translate(-37.85 115.15) scale(.59 -.59)" gradientUnits="userSpaceOnUse">
      <stop offset="0" stop-color="#eae4d0"/>
      <stop offset=".32" stop-color="#d7d1ba"/>
      <stop offset=".98" stop-color="#a7a084"/>
      <stop offset="1" stop-color="#a69f82"/>
    </linearGradient>
    <linearGradient id="Gradiente_sem_nome_119-2" data-name="Gradiente sem nome 119" x1="54.85" y1="308.29" x2="2061.61" y2="-300.83" xlink:href="#Gradiente_sem_nome_119"/>
    <linearGradient id="Gradiente_sem_nome_119-3" data-name="Gradiente sem nome 119" x1="61.73" y1="330.95" x2="2068.48" y2="-278.18" xlink:href="#Gradiente_sem_nome_119"/>
    <linearGradient id="Gradiente_sem_nome_119-4" data-name="Gradiente sem nome 119" x1="69.3" y1="355.89" x2="2076.05" y2="-253.24" xlink:href="#Gradiente_sem_nome_119"/>
    <linearGradient id="Gradiente_sem_nome_119-5" data-name="Gradiente sem nome 119" x1="72.83" y1="367.52" x2="2079.59" y2="-241.6" xlink:href="#Gradiente_sem_nome_119"/>
    <linearGradient id="Gradiente_sem_nome_119-6" data-name="Gradiente sem nome 119" x1="77.78" y1="383.85" x2="2084.54" y2="-225.27" xlink:href="#Gradiente_sem_nome_119"/>
    <linearGradient id="Gradiente_sem_nome_119-7" data-name="Gradiente sem nome 119" x1="82.23" y1="398.51" x2="2088.99" y2="-210.61" xlink:href="#Gradiente_sem_nome_119"/>
    <linearGradient id="Gradiente_sem_nome_119-8" data-name="Gradiente sem nome 119" x1="88.65" y1="419.64" x2="2095.4" y2="-189.49" xlink:href="#Gradiente_sem_nome_119"/>
    <linearGradient id="Gradiente_sem_nome_119-9" data-name="Gradiente sem nome 119" x1="94.56" y1="439.12" x2="2101.32" y2="-170" xlink:href="#Gradiente_sem_nome_119"/>
    <linearGradient id="Gradiente_sem_nome_119-10" data-name="Gradiente sem nome 119" x1="99.15" y1="454.23" x2="2105.9" y2="-154.9" xlink:href="#Gradiente_sem_nome_119"/>
    <linearGradient id="Gradiente_sem_nome_119-11" data-name="Gradiente sem nome 119" x1="104.32" y1="471.26" x2="2111.07" y2="-137.86" xlink:href="#Gradiente_sem_nome_119"/>
    <linearGradient id="Gradiente_sem_nome_119-12" data-name="Gradiente sem nome 119" x1="18.21" y1="187.58" x2="2024.97" y2="-421.55" xlink:href="#Gradiente_sem_nome_119"/>
    <linearGradient id="Gradiente_sem_nome_119-13" data-name="Gradiente sem nome 119" x1="24.56" y1="208.52" x2="2031.32" y2="-400.61" xlink:href="#Gradiente_sem_nome_119"/>
    <linearGradient id="Gradiente_sem_nome_119-14" data-name="Gradiente sem nome 119" x1="29.36" y1="224.32" x2="2036.12" y2="-384.8" xlink:href="#Gradiente_sem_nome_119"/>
    <linearGradient id="Gradiente_sem_nome_119-15" data-name="Gradiente sem nome 119" x1="37.19" y1="250.11" x2="2043.95" y2="-359.01" xlink:href="#Gradiente_sem_nome_119"/>
    <linearGradient id="Gradiente_sem_nome_119-16" data-name="Gradiente sem nome 119" x1="41.97" y1="265.85" x2="2048.72" y2="-343.27" xlink:href="#Gradiente_sem_nome_119"/>
    <linearGradient id="Gradiente_sem_nome_119-17" data-name="Gradiente sem nome 119" x1="46.95" y1="282.27" x2="2053.71" y2="-326.86" xlink:href="#Gradiente_sem_nome_119"/>
    <linearGradient id="Gradiente_sem_nome_119-18" data-name="Gradiente sem nome 119" x1="51.83" y1="298.35" x2="2058.59" y2="-310.78" xlink:href="#Gradiente_sem_nome_119"/>
    <linearGradient id="Gradiente_sem_nome_119-19" data-name="Gradiente sem nome 119" x1="56.61" y1="314.11" x2="2063.37" y2="-295.02" xlink:href="#Gradiente_sem_nome_119"/>
    <linearGradient id="Gradiente_sem_nome_119-20" data-name="Gradiente sem nome 119" x1="62.52" y1="333.58" x2="2069.28" y2="-275.55" xlink:href="#Gradiente_sem_nome_119"/>
    <linearGradient id="Gradiente_sem_nome_119-21" data-name="Gradiente sem nome 119" x1="69.19" y1="355.54" x2="2075.95" y2="-253.59" xlink:href="#Gradiente_sem_nome_119"/>
    <linearGradient id="Gradiente_sem_nome_119-22" data-name="Gradiente sem nome 119" x1="74.85" y1="374.17" x2="2081.6" y2="-234.96" xlink:href="#Gradiente_sem_nome_119"/>
    <linearGradient id="Gradiente_sem_nome_119-23" data-name="Gradiente sem nome 119" x1="-34.34" y1="14.45" x2="1972.42" y2="-594.67" xlink:href="#Gradiente_sem_nome_119"/>
    <linearGradient id="Gradiente_sem_nome_119-24" data-name="Gradiente sem nome 119" x1="7.58" y1="152.57" x2="2014.34" y2="-456.56" xlink:href="#Gradiente_sem_nome_119"/>
    <linearGradient id="Gradiente_sem_nome_119-25" data-name="Gradiente sem nome 119" x1="12.78" y1="169.7" x2="2019.54" y2="-439.43" xlink:href="#Gradiente_sem_nome_119"/>
    <linearGradient id="Gradiente_sem_nome_119-26" data-name="Gradiente sem nome 119" x1="89.96" y1="423.96" x2="2096.72" y2="-185.17" xlink:href="#Gradiente_sem_nome_119"/>
  </defs>
  <g>
    <path class="cls-19" d="M768.59,159.49l-17.28,40.89h4.55l5.09-12.32h19.89l5.09,12.32h4.52l-17.25-40.89h-4.62,0ZM762.32,184.72l8.4-20.37h.32l8.44,20.37h-17.17Z"/>
    <path class="cls-19" d="M818.15,183.06c3.29-.93,5.7-2.61,7.23-5.02,1.14-1.81,1.72-3.91,1.72-6.3s-.58-4.51-1.75-6.35-2.86-3.29-5.09-4.35c-2.3-1.04-5.1-1.56-8.44-1.56h-15.34v40.89h4.33v-16.53h11.07c.41,0,1.01-.02,1.81-.06l10.35,16.59h5.03l-10.92-17.31h0ZM811.75,180.44h-10.95v-17.59h10.89c4.88,0,8.18,1.39,9.9,4.18.83,1.36,1.24,2.92,1.24,4.71,0,3.63-1.63,6.18-4.91,7.61-1.65.73-3.71,1.09-6.18,1.09h0Z"/>
    <path class="cls-19" d="M871.88,191.02c1.74-3.14,2.61-6.83,2.61-11.07s-.86-7.88-2.59-11.04-4.15-5.63-7.27-7.39c-3.1-1.73-6.63-2.59-10.6-2.59s-7.52.86-10.6,2.58-5.51,4.15-7.29,7.31c-1.76,3.16-2.64,6.87-2.64,11.13s.86,7.88,2.59,11.04,4.17,5.62,7.3,7.36c3.1,1.73,6.64,2.59,10.63,2.59,3.37,0,6.49-.64,9.36-1.93l4.52,5.21h4.8l-6.18-7.08c2.2-1.62,3.99-3.66,5.35-6.11h0ZM864.05,194.26l-5.85-6.68h-4.8l7.48,8.52c-2.08.9-4.36,1.34-6.85,1.34-3.14,0-5.95-.7-8.42-2.1-2.47-1.41-4.41-3.41-5.81-6.01-1.42-2.6-2.13-5.73-2.13-9.39s.7-6.74,2.1-9.37c1.4-2.63,3.37-4.65,5.92-6.07,2.44-1.39,5.22-2.09,8.34-2.09s5.91.69,8.35,2.09c2.45,1.39,4.39,3.39,5.81,5.99,1.42,2.6,2.13,5.75,2.13,9.45,0,3.16-.55,5.96-1.64,8.39s-2.64,4.41-4.63,5.92h0Z"/>
    <path class="cls-19" d="M918.86,159.49h-4.33v26.82c0,2.12-.57,4.03-1.7,5.74s-2.72,3.04-4.76,4.02c-2.06.97-4.45,1.47-7.16,1.47s-5.1-.47-7.16-1.43c-2.06-.96-3.66-2.3-4.8-4.02s-1.72-3.65-1.72-5.77v-26.82h-4.33v27.04c0,2.76.76,5.25,2.28,7.46,1.52,2.2,3.63,3.93,6.35,5.18,2.68,1.27,5.8,1.91,9.39,1.91s6.61-.63,9.33-1.87,4.84-2.98,6.36-5.21c1.51-2.2,2.26-4.69,2.26-7.46v-27.04h0Z"/>
    <rect class="cls-19" x="929.37" y="159.49" width="4.33" height="40.89"/>
    <polygon class="cls-19" points="960.75 200.37 960.75 162.85 975.78 162.85 975.78 159.49 941.37 159.49 941.37 162.85 956.45 162.85 956.45 200.37 960.75 200.37"/>
    <polygon class="cls-19" points="987.74 181.48 1009.49 181.48 1009.49 178.1 987.74 178.1 987.74 162.85 1010.95 162.85 1010.95 159.49 983.41 159.49 983.41 200.37 1011.4 200.37 1011.4 197.04 987.74 197.04 987.74 181.48"/>
    <polygon class="cls-19" points="1032.28 200.37 1036.58 200.37 1036.58 162.85 1051.6 162.85 1051.6 159.49 1017.2 159.49 1017.2 162.85 1032.28 162.85 1032.28 200.37"/>
    <path class="cls-19" d="M1077.26,201.06c3.5,0,6.61-.63,9.33-1.87s4.84-2.98,6.36-5.21c1.51-2.2,2.26-4.69,2.26-7.46v-27.04h-4.33v26.82c0,2.12-.57,4.03-1.7,5.74s-2.72,3.04-4.76,4.02c-2.06.97-4.45,1.47-7.16,1.47s-5.1-.47-7.16-1.43c-2.06-.96-3.66-2.3-4.8-4.02s-1.72-3.65-1.72-5.77v-26.82h-4.33v27.04c0,2.76.76,5.25,2.28,7.46,1.52,2.2,3.63,3.93,6.35,5.18,2.68,1.27,5.8,1.91,9.39,1.91h0Z"/>
    <path class="cls-19" d="M1134.62,178.04c1.14-1.81,1.72-3.91,1.72-6.3s-.58-4.51-1.75-6.35-2.86-3.29-5.09-4.35c-2.3-1.04-5.1-1.56-8.44-1.56h-15.34v40.89h4.33v-16.53h11.07c.41,0,1.01-.02,1.81-.06l10.35,16.59h5.03l-10.92-17.31c3.29-.93,5.7-2.61,7.23-5.02h0ZM1120.99,180.44h-10.95v-17.59h10.89c4.88,0,8.18,1.39,9.9,4.18.83,1.36,1.24,2.92,1.24,4.71,0,3.63-1.63,6.18-4.91,7.61-1.65.73-3.71,1.09-6.18,1.09h0Z"/>
    <path class="cls-19" d="M1169.92,188.05l5.09,12.32h4.52l-17.25-40.89h-4.62l-17.28,40.89h4.55l5.09-12.32h19.9ZM1159.8,164.35h.32l8.44,20.37h-17.16l8.4-20.37h0Z"/>
    <polygon class="cls-19" points="756.79 247.36 780.12 247.36 780.12 243.74 756.79 243.74 756.79 227.37 781.69 227.37 781.69 223.76 752.14 223.76 752.14 267.64 782.17 267.64 782.17 264.06 756.79 264.06 756.79 247.36"/>
    <rect class="cls-19" x="808.95" y="223.76" width="4.64" height="43.89"/>
    <polygon class="cls-19" points="860 260.55 859.63 260.55 829.42 223.76 824.92 223.76 824.92 267.64 829.56 267.64 829.56 230.92 830.01 230.92 860.04 267.64 864.62 267.64 864.62 223.76 860 223.76 860 260.55"/>
    <polygon class="cls-19" points="872.85 227.37 889.05 227.37 889.05 267.64 893.66 267.64 893.66 227.37 909.79 227.37 909.79 223.76 872.85 223.76 872.85 227.37"/>
    <polygon class="cls-19" points="922.63 247.36 945.97 247.36 945.97 243.74 922.63 243.74 922.63 227.37 947.54 227.37 947.54 223.76 917.99 223.76 917.99 267.64 948.02 267.64 948.02 264.06 922.63 264.06 922.63 247.36"/>
    <path class="cls-19" d="M988.34,243.67c1.23-1.94,1.85-4.19,1.85-6.76s-.63-4.84-1.88-6.81-3.08-3.53-5.47-4.67c-2.46-1.12-5.48-1.68-9.06-1.68h-16.47v43.89h4.64v-17.74h11.89c.43,0,1.08-.03,1.95-.07l11.11,17.81h5.4l-11.72-18.58c3.53-1.01,6.12-2.8,7.75-5.39h0ZM973.71,246.25h-11.75v-18.88h11.68c5.24,0,8.78,1.5,10.62,4.48.89,1.45,1.33,3.13,1.33,5.06,0,3.91-1.75,6.63-5.26,8.17-1.78.78-3.98,1.17-6.63,1.17Z"/>
    <rect class="cls-19" x="999.3" y="223.76" width="4.64" height="43.89"/>
    <path class="cls-19" d="M1046.42,225.93c-3.33-1.86-7.12-2.78-11.38-2.78s-8.07.92-11.38,2.76c-3.3,1.84-5.91,4.46-7.82,7.85-1.89,3.39-2.84,7.38-2.84,11.95s.93,8.46,2.79,11.85c1.86,3.39,4.47,6.02,7.84,7.9,3.33,1.86,7.13,2.78,11.41,2.78s8.05-.92,11.36-2.78c3.31-1.86,5.91-4.47,7.8-7.86,1.86-3.37,2.8-7.33,2.8-11.89s-.93-8.46-2.79-11.85c-1.86-3.39-4.46-6.03-7.8-7.93h0ZM1050.3,255.75c-1.49,2.82-3.59,4.99-6.3,6.51-2.62,1.5-5.6,2.25-8.96,2.25s-6.38-.75-9.04-2.26c-2.65-1.51-4.73-3.65-6.24-6.45-1.52-2.79-2.29-6.15-2.29-10.07s.75-7.24,2.25-10.06c1.5-2.82,3.62-4.99,6.35-6.51,2.62-1.5,5.6-2.25,8.96-2.25s6.34.75,8.97,2.25c2.64,1.49,4.71,3.63,6.24,6.43s2.29,6.17,2.29,10.14-.75,7.2-2.24,10.02h0Z"/>
    <path class="cls-19" d="M1097.06,243.67c1.23-1.94,1.85-4.19,1.85-6.76s-.63-4.84-1.88-6.81-3.08-3.53-5.47-4.67c-2.46-1.12-5.48-1.68-9.06-1.68h-16.47v43.89h4.64v-17.74h11.89c.43,0,1.08-.03,1.95-.07l11.11,17.81h5.4l-11.72-18.58c3.53-1.01,6.12-2.8,7.75-5.39h0ZM1082.43,246.25h-11.75v-18.88h11.68c5.24,0,8.78,1.5,10.62,4.48.89,1.45,1.33,3.13,1.33,5.06,0,3.91-1.75,6.63-5.26,8.17-1.78.78-3.98,1.17-6.63,1.17Z"/>
    <polygon class="cls-19" points="1112.67 247.36 1136.01 247.36 1136.01 243.74 1112.67 243.74 1112.67 227.37 1137.58 227.37 1137.58 223.76 1108.02 223.76 1108.02 267.64 1138.06 267.64 1138.06 264.06 1112.67 264.06 1112.67 247.36"/>
    <path class="cls-19" d="M1175.71,248c-2.28-1.49-5.39-2.75-9.33-3.78l-5.36-1.3c-1.91-.53-3.59-1.13-5.04-1.77s-2.64-1.44-3.57-2.38c-1-1.05-1.5-2.33-1.5-3.85s.51-2.93,1.52-4.19,2.42-2.23,4.22-2.95c1.78-.69,3.85-1.03,6.22-1.03s4.26.33,6.03.99c1.76.66,3.18,1.58,4.24,2.78s1.68,2.59,1.86,4.2h4.54c-.11-2.19-.88-4.16-2.3-5.91s-3.36-3.14-5.83-4.17c-2.41-1.01-5.22-1.51-8.4-1.51s-5.9.5-8.4,1.51c-2.51,1.01-4.5,2.41-5.98,4.22-1.48,1.83-2.22,3.91-2.22,6.26,0,5.34,4.2,9.06,12.61,11.18l6.05,1.54c2.28.58,4.19,1.21,5.72,1.89,1.53.68,2.74,1.5,3.6,2.46.89,1.01,1.33,2.25,1.33,3.75,0,1.74-.56,3.28-1.68,4.6s-2.68,2.36-4.68,3.09c-1.98.74-4.24,1.1-6.79,1.1-2.3,0-4.38-.32-6.24-.96s-3.36-1.54-4.49-2.73c-1.19-1.19-1.86-2.64-2.02-4.39h-4.75c.19,2.32,1,4.36,2.46,6.13,1.46,1.76,3.47,3.13,6.02,4.12,2.59.98,5.6,1.47,9.02,1.47,3.62,0,6.75-.53,9.4-1.61,2.64-1.07,4.69-2.57,6.15-4.48,1.41-1.9,2.12-3.99,2.12-6.3,0-3.32-1.5-5.99-4.51-8h0Z"/>
    <path class="cls-19" d="M253.83,242.09c-.94-.47-2.35,0-2.82,1.41-15.98,52.65-52.65,90.73-102,91.67-70.51-1.41-114.7-74.74-115.17-164.06v-3.76C34.31,78.5,78.5,4.69,148.54,3.75c48.42.94,84.62,37.14,101.06,86.96.47,1.41,1.88,1.88,2.82.94l20.22-12.69c.94-.47,1.41-1.41.94-2.35C249.61,31.49,205.42.47,148.54,0,57.82.94,0,78.97,0,169.22s58.29,168.76,149.02,169.7c58.76-.94,103.88-33.85,126.92-81.8.47-.94,0-1.88-.47-2.35l-21.62-12.69h0Z"/>
    <path class="cls-19" d="M570.19,308.84l.48-301.31s-25.92-.75-34.5.12c-17.19,1.72-64.7,47.82-109.36,95.3-10.81-4.23-23.5-6.58-38.55-6.58-45.6,0-74.75,23.98-92.13,56.88l22.56,15.98c11.29-37.61,32.91-69.1,69.57-69.1,13.63,0,24.44,2.82,32.91,8.93-15.51,16.45-30.09,32.91-43.24,46.54-52.65,56.41-85.08,93.07-85.08,124.57,0,40.42,33.37,62.52,69.57,62.52s76.15-23.04,85.56-73.33v67.22h53.12v-1.88c-21.16,0-23.97-3.76-24.44-24.92v-123.63c0-34.31-9.25-63.32-41.69-77.88,32.58-37.58,57.99-60.39,73.71-74.83,38.36-35.22,32.66-5.16,32.85,13.11v250.55c0,31.97-4.7,37.65-29.61,37.65v1.88h87.44v-1.88c-21.62,0-27.73-4.28-29.15-25.9h0ZM447.97,186.15v60.17c0,52.65-40.42,79.91-75.21,79.91-25.86,0-48.89-15.51-48.89-47.48,0-29.61,21.69-66.4,64.47-118.11,11.75-14.57,25.47-28.4,40.04-45.33,15.98,14.1,19.6,35.58,19.6,70.83h0Z"/>
    <path class="cls-19" d="M669.39,297.56V101.07h-57.82v1.88c24.92,0,29.61,5.64,29.61,37.14v157.47c0,31.49-4.7,37.14-29.61,37.14v1.88h87.44v-1.88c-24.91,0-29.61-5.64-29.61-37.14h0Z"/>
    <path class="cls-19" d="M643.13,82.62c.59,2.36,2.38,3.14,3.57,1.57l25.58-21.21c1.19-.79,1.79-2.36,1.19-3.93-3.47-8.63-7.31-16.92-11.45-24.88-.64-1.23-2.29-1.49-3.29-.53-7.31,7.07-14.6,14.19-21.89,21.3-.87.86-1.19,2.12-.8,3.28,2.6,7.88,4.99,16,7.09,24.39h0Z"/>
  </g>
  <g>
    <path class="cls-18" d="M768.59,159.49l-17.28,40.89h4.55l5.09-12.32h19.89l5.09,12.32h4.52l-17.25-40.89h-4.62,0ZM762.32,184.72l8.4-20.37h.32l8.44,20.37h-17.17Z"/>
    <path class="cls-22" d="M818.15,183.06c3.29-.93,5.7-2.61,7.23-5.02,1.14-1.81,1.72-3.91,1.72-6.3s-.58-4.51-1.75-6.35-2.86-3.29-5.09-4.35c-2.3-1.04-5.1-1.56-8.44-1.56h-15.34v40.89h4.33v-16.53h11.07c.41,0,1.01-.02,1.81-.06l10.35,16.59h5.03l-10.92-17.31h0ZM811.75,180.44h-10.95v-17.59h10.89c4.88,0,8.18,1.39,9.9,4.18.83,1.36,1.24,2.92,1.24,4.71,0,3.63-1.63,6.18-4.91,7.61-1.65.73-3.71,1.09-6.18,1.09h0Z"/>
    <path class="cls-26" d="M871.88,191.02c1.74-3.14,2.61-6.83,2.61-11.07s-.86-7.88-2.59-11.04-4.15-5.63-7.27-7.39c-3.1-1.73-6.63-2.59-10.6-2.59s-7.52.86-10.6,2.58-5.51,4.15-7.29,7.31c-1.76,3.16-2.64,6.87-2.64,11.13s.86,7.88,2.59,11.04,4.17,5.62,7.3,7.36c3.1,1.73,6.64,2.59,10.63,2.59,3.37,0,6.49-.64,9.36-1.93l4.52,5.21h4.8l-6.18-7.08c2.2-1.62,3.99-3.66,5.35-6.11h0ZM864.05,194.26l-5.85-6.68h-4.8l7.48,8.52c-2.08.9-4.36,1.34-6.85,1.34-3.14,0-5.95-.7-8.42-2.1-2.47-1.41-4.41-3.41-5.81-6.01-1.42-2.6-2.13-5.73-2.13-9.39s.7-6.74,2.1-9.37c1.4-2.63,3.37-4.65,5.92-6.07,2.44-1.39,5.22-2.09,8.34-2.09s5.91.69,8.35,2.09c2.45,1.39,4.39,3.39,5.81,5.99,1.42,2.6,2.13,5.75,2.13,9.45,0,3.16-.55,5.96-1.64,8.39s-2.64,4.41-4.63,5.92h0Z"/>
    <path class="cls-20" d="M918.86,159.49h-4.33v26.82c0,2.12-.57,4.03-1.7,5.74s-2.72,3.04-4.76,4.02c-2.06.97-4.45,1.47-7.16,1.47s-5.1-.47-7.16-1.43c-2.06-.96-3.66-2.3-4.8-4.02s-1.72-3.65-1.72-5.77v-26.82h-4.33v27.04c0,2.76.76,5.25,2.28,7.46,1.52,2.2,3.63,3.93,6.35,5.18,2.68,1.27,5.8,1.91,9.39,1.91s6.61-.63,9.33-1.87,4.84-2.98,6.36-5.21c1.51-2.2,2.26-4.69,2.26-7.46v-27.04h0Z"/>
    <rect class="cls-23" x="929.37" y="159.49" width="4.33" height="40.89"/>
    <polygon class="cls-25" points="960.75 200.37 960.75 162.85 975.78 162.85 975.78 159.49 941.37 159.49 941.37 162.85 956.45 162.85 956.45 200.37 960.75 200.37"/>
    <polygon class="cls-21" points="987.74 181.48 1009.49 181.48 1009.49 178.1 987.74 178.1 987.74 162.85 1010.95 162.85 1010.95 159.49 983.41 159.49 983.41 200.37 1011.4 200.37 1011.4 197.04 987.74 197.04 987.74 181.48"/>
    <polygon class="cls-24" points="1032.28 200.37 1036.58 200.37 1036.58 162.85 1051.6 162.85 1051.6 159.49 1017.2 159.49 1017.2 162.85 1032.28 162.85 1032.28 200.37"/>
    <path class="cls-27" d="M1077.26,201.06c3.5,0,6.61-.63,9.33-1.87s4.84-2.98,6.36-5.21c1.51-2.2,2.26-4.69,2.26-7.46v-27.04h-4.33v26.82c0,2.12-.57,4.03-1.7,5.74s-2.72,3.04-4.76,4.02c-2.06.97-4.45,1.47-7.16,1.47s-5.1-.47-7.16-1.43c-2.06-.96-3.66-2.3-4.8-4.02s-1.72-3.65-1.72-5.77v-26.82h-4.33v27.04c0,2.76.76,5.25,2.28,7.46,1.52,2.2,3.63,3.93,6.35,5.18,2.68,1.27,5.8,1.91,9.39,1.91h0Z"/>
    <path class="cls-8" d="M1134.62,178.04c1.14-1.81,1.72-3.91,1.72-6.3s-.58-4.51-1.75-6.35-2.86-3.29-5.09-4.35c-2.3-1.04-5.1-1.56-8.44-1.56h-15.34v40.89h4.33v-16.53h11.07c.41,0,1.01-.02,1.81-.06l10.35,16.59h5.03l-10.92-17.31c3.29-.93,5.7-2.61,7.23-5.02h0ZM1120.99,180.44h-10.95v-17.59h10.89c4.88,0,8.18,1.39,9.9,4.18.83,1.36,1.24,2.92,1.24,4.71,0,3.63-1.63,6.18-4.91,7.61-1.65.73-3.71,1.09-6.18,1.09h0Z"/>
    <path class="cls-9" d="M1169.92,188.05l5.09,12.32h4.52l-17.25-40.89h-4.62l-17.28,40.89h4.55l5.09-12.32h19.9ZM1159.8,164.35h.32l8.44,20.37h-17.16l8.4-20.37h0Z"/>
    <polygon class="cls-10" points="756.79 247.36 780.12 247.36 780.12 243.74 756.79 243.74 756.79 227.37 781.69 227.37 781.69 223.76 752.14 223.76 752.14 267.64 782.17 267.64 782.17 264.06 756.79 264.06 756.79 247.36"/>
    <rect class="cls-16" x="808.95" y="223.76" width="4.64" height="43.89"/>
    <polygon class="cls-17" points="860 260.55 859.63 260.55 829.42 223.76 824.92 223.76 824.92 267.64 829.56 267.64 829.56 230.92 830.01 230.92 860.04 267.64 864.62 267.64 864.62 223.76 860 223.76 860 260.55"/>
    <polygon class="cls-14" points="872.85 227.37 889.05 227.37 889.05 267.64 893.66 267.64 893.66 227.37 909.79 227.37 909.79 223.76 872.85 223.76 872.85 227.37"/>
    <polygon class="cls-15" points="922.63 247.36 945.97 247.36 945.97 243.74 922.63 243.74 922.63 227.37 947.54 227.37 947.54 223.76 917.99 223.76 917.99 267.64 948.02 267.64 948.02 264.06 922.63 264.06 922.63 247.36"/>
    <path class="cls-11" d="M988.34,243.67c1.23-1.94,1.85-4.19,1.85-6.76s-.63-4.84-1.88-6.81-3.08-3.53-5.47-4.67c-2.46-1.12-5.48-1.68-9.06-1.68h-16.47v43.89h4.64v-17.74h11.89c.43,0,1.08-.03,1.95-.07l11.11,17.81h5.4l-11.72-18.58c3.53-1.01,6.12-2.8,7.75-5.39h0ZM973.71,246.25h-11.75v-18.88h11.68c5.24,0,8.78,1.5,10.62,4.48.89,1.45,1.33,3.13,1.33,5.06,0,3.91-1.75,6.63-5.26,8.17-1.78.78-3.98,1.17-6.63,1.17Z"/>
    <rect class="cls-12" x="999.3" y="223.76" width="4.64" height="43.89"/>
    <path class="cls-13" d="M1046.42,225.93c-3.33-1.86-7.12-2.78-11.38-2.78s-8.07.92-11.38,2.76c-3.3,1.84-5.91,4.46-7.82,7.85-1.89,3.39-2.84,7.38-2.84,11.95s.93,8.46,2.79,11.85c1.86,3.39,4.47,6.02,7.84,7.9,3.33,1.86,7.13,2.78,11.41,2.78s8.05-.92,11.36-2.78c3.31-1.86,5.91-4.47,7.8-7.86,1.86-3.37,2.8-7.33,2.8-11.89s-.93-8.46-2.79-11.85c-1.86-3.39-4.46-6.03-7.8-7.93h0ZM1050.3,255.75c-1.49,2.82-3.59,4.99-6.3,6.51-2.62,1.5-5.6,2.25-8.96,2.25s-6.38-.75-9.04-2.26c-2.65-1.51-4.73-3.65-6.24-6.45-1.52-2.79-2.29-6.15-2.29-10.07s.75-7.24,2.25-10.06c1.5-2.82,3.62-4.99,6.35-6.51,2.62-1.5,5.6-2.25,8.96-2.25s6.34.75,8.97,2.25c2.64,1.49,4.71,3.63,6.24,6.43s2.29,6.17,2.29,10.14-.75,7.2-2.24,10.02h0Z"/>
    <path class="cls-1" d="M1097.06,243.67c1.23-1.94,1.85-4.19,1.85-6.76s-.63-4.84-1.88-6.81-3.08-3.53-5.47-4.67c-2.46-1.12-5.48-1.68-9.06-1.68h-16.47v43.89h4.64v-17.74h11.89c.43,0,1.08-.03,1.95-.07l11.11,17.81h5.4l-11.72-18.58c3.53-1.01,6.12-2.8,7.75-5.39h0ZM1082.43,246.25h-11.75v-18.88h11.68c5.24,0,8.78,1.5,10.62,4.48.89,1.45,1.33,3.13,1.33,5.06,0,3.91-1.75,6.63-5.26,8.17-1.78.78-3.98,1.17-6.63,1.17Z"/>
    <polygon class="cls-7" points="1112.67 247.36 1136.01 247.36 1136.01 243.74 1112.67 243.74 1112.67 227.37 1137.58 227.37 1137.58 223.76 1108.02 223.76 1108.02 267.64 1138.06 267.64 1138.06 264.06 1112.67 264.06 1112.67 247.36"/>
    <path class="cls-6" d="M1175.71,248c-2.28-1.49-5.39-2.75-9.33-3.78l-5.36-1.3c-1.91-.53-3.59-1.13-5.04-1.77s-2.64-1.44-3.57-2.38c-1-1.05-1.5-2.33-1.5-3.85s.51-2.93,1.52-4.19,2.42-2.23,4.22-2.95c1.78-.69,3.85-1.03,6.22-1.03s4.26.33,6.03.99c1.76.66,3.18,1.58,4.24,2.78s1.68,2.59,1.86,4.2h4.54c-.11-2.19-.88-4.16-2.3-5.91s-3.36-3.14-5.83-4.17c-2.41-1.01-5.22-1.51-8.4-1.51s-5.9.5-8.4,1.51c-2.51,1.01-4.5,2.41-5.98,4.22-1.48,1.83-2.22,3.91-2.22,6.26,0,5.34,4.2,9.06,12.61,11.18l6.05,1.54c2.28.58,4.19,1.21,5.72,1.89,1.53.68,2.74,1.5,3.6,2.46.89,1.01,1.33,2.25,1.33,3.75,0,1.74-.56,3.28-1.68,4.6s-2.68,2.36-4.68,3.09c-1.98.74-4.24,1.1-6.79,1.1-2.3,0-4.38-.32-6.24-.96s-3.36-1.54-4.49-2.73c-1.19-1.19-1.86-2.64-2.02-4.39h-4.75c.19,2.32,1,4.36,2.46,6.13,1.46,1.76,3.47,3.13,6.02,4.12,2.59.98,5.6,1.47,9.02,1.47,3.62,0,6.75-.53,9.4-1.61,2.64-1.07,4.69-2.57,6.15-4.48,1.41-1.9,2.12-3.99,2.12-6.3,0-3.32-1.5-5.99-4.51-8h0Z"/>
    <path class="cls-3" d="M253.83,242.09c-.94-.47-2.35,0-2.82,1.41-15.98,52.65-52.65,90.73-102,91.67-70.51-1.41-114.7-74.74-115.17-164.06v-3.76C34.31,78.5,78.5,4.69,148.54,3.75c48.42.94,84.62,37.14,101.06,86.96.47,1.41,1.88,1.88,2.82.94l20.22-12.69c.94-.47,1.41-1.41.94-2.35C249.61,31.49,205.42.47,148.54,0,57.82.94,0,78.97,0,169.22s58.29,168.76,149.02,169.7c58.76-.94,103.88-33.85,126.92-81.8.47-.94,0-1.88-.47-2.35l-21.62-12.69h0Z"/>
    <path class="cls-4" d="M570.19,308.84l.48-301.31s-25.92-.75-34.5.12c-17.19,1.72-64.7,47.82-109.36,95.3-10.81-4.23-23.5-6.58-38.55-6.58-45.6,0-74.75,23.98-92.13,56.88l22.56,15.98c11.29-37.61,32.91-69.1,69.57-69.1,13.63,0,24.44,2.82,32.91,8.93-15.51,16.45-30.09,32.91-43.24,46.54-52.65,56.41-85.08,93.07-85.08,124.57,0,40.42,33.37,62.52,69.57,62.52s76.15-23.04,85.56-73.33v67.22h53.12v-1.88c-21.16,0-23.97-3.76-24.44-24.92v-123.63c0-34.31-9.25-63.32-41.69-77.88,32.58-37.58,57.99-60.39,73.71-74.83,38.36-35.22,32.66-5.16,32.85,13.11v250.55c0,31.97-4.7,37.65-29.61,37.65v1.88h87.44v-1.88c-21.62,0-27.73-4.28-29.15-25.9h0ZM447.97,186.15v60.17c0,52.65-40.42,79.91-75.21,79.91-25.86,0-48.89-15.51-48.89-47.48,0-29.61,21.69-66.4,64.47-118.11,11.75-14.57,25.47-28.4,40.04-45.33,15.98,14.1,19.6,35.58,19.6,70.83h0Z"/>
    <path class="cls-5" d="M669.39,297.56V101.07h-57.82v1.88c24.92,0,29.61,5.64,29.61,37.14v157.47c0,31.49-4.7,37.14-29.61,37.14v1.88h87.44v-1.88c-24.91,0-29.61-5.64-29.61-37.14h0Z"/>
    <path class="cls-2" d="M643.13,82.62c.59,2.36,2.38,3.14,3.57,1.57l25.58-21.21c1.19-.79,1.79-2.36,1.19-3.93-3.47-8.63-7.31-16.92-11.45-24.88-.64-1.23-2.29-1.49-3.29-.53-7.31,7.07-14.6,14.19-21.89,21.3-.87.86-1.19,2.12-.8,3.28,2.6,7.88,4.99,16,7.09,24.39h0Z"/>
  </g>
</svg>